HIERARCHY
ROOT Hips
{
 OFFSET 0.000000 0.000000 0.000000
 CHANNELS 6 Xposition Yposition Zposition Yrotation Xrotation Zrotation
 JOINT Chest
 {
  OFFSET 0.000000 9.585900 0.002600
  CHANNELS 3 Yrotation Xrotation Zrotation
  JOINT Chest2
  {
   OFFSET 0.000000 9.601200 -0.005300
   CHANNELS 3 Yrotation Xrotation Zrotation
   JOINT Chest3
   {
    OFFSET 0.000000 9.561800 0.000000
    CHANNELS 3 Yrotation Xrotation Zrotation
    JOINT Chest4
    {
     OFFSET 0.000000 9.552100 0.000000
     CHANNELS 3 Yrotation Xrotation Zrotation
     JOINT Neck
     {
      OFFSET 0.000000 14.453000 0.000000
      CHANNELS 3 Yrotation Xrotation Zrotation
      JOINT Head
      {
       OFFSET 0.000000 8.936500 -0.011300
       CHANNELS 3 Yrotation Xrotation Zrotation
       End Site
       {
        OFFSET 0.000000 17.073600 -0.006000
       }
      }
     }
     JOINT RightCollar
     {
      OFFSET -2.921100 9.558500 0.000000
      CHANNELS 3 Yrotation Xrotation Zrotation
      JOINT RightShoulder
      {
       OFFSET -13.519700 0.000000 0.000000
       CHANNELS 3 Yrotation Xrotation Zrotation
       JOINT RightElbow
       {
        OFFSET 0.000000 -29.696600 0.000000
        CHANNELS 3 Yrotation Xrotation Zrotation
        JOINT RightWrist
        {
         OFFSET 0.000000 -24.004700 0.000000
         CHANNELS 3 Yrotation Xrotation Zrotation
         End Site
         {
          OFFSET 0.000000 -17.728500 0.000000
         }
        }
       }
      }
     }
     JOINT LeftCollar
     {
      OFFSET 2.921100 9.558500 0.000000
      CHANNELS 3 Yrotation Xrotation Zrotation
      JOINT LeftShoulder
      {
       OFFSET 13.519700 0.000000 0.000000
       CHANNELS 3 Yrotation Xrotation Zrotation
       JOINT LeftElbow
       {
        OFFSET 0.000000 -29.696600 0.000000
        CHANNELS 3 Yrotation Xrotation Zrotation
        JOINT LeftWrist
        {
         OFFSET 0.000000 -24.004700 0.000000
         CHANNELS 3 Yrotation Xrotation Zrotation
         End Site
         {
          OFFSET 0.000000 -17.728500 0.000000
         }
        }
       }
      }
     }
    }
   }
  }
 }
 JOINT RightHip
 {
  OFFSET -7.771700 -0.012900 -0.001300
  CHANNELS 3 Yrotation Xrotation Zrotation
  JOINT RightKnee
  {
   OFFSET 0.000000 -40.869800 0.001200
   CHANNELS 3 Yrotation Xrotation Zrotation
   JOINT RightAnkle
   {
    OFFSET 0.000000 -39.717900 0.002100
    CHANNELS 3 Yrotation Xrotation Zrotation
    JOINT RightToe
    {
     OFFSET 0.000000 -4.965400 11.033500
     CHANNELS 3 Yrotation Xrotation Zrotation
     End Site
     {
      OFFSET 0.000000 -1.423100 5.872300
     }
    }
   }
  }
 }
 JOINT LeftHip
 {
  OFFSET 7.771700 -0.012900 -0.001300
  CHANNELS 3 Yrotation Xrotation Zrotation
  JOINT LeftKnee
  {
   OFFSET 0.000000 -40.869800 0.001200
   CHANNELS 3 Yrotation Xrotation Zrotation
   JOINT LeftAnkle
   {
    OFFSET 0.000000 -39.717900 0.002100
    CHANNELS 3 Yrotation Xrotation Zrotation
    JOINT LeftToe
    {
     OFFSET 0.000000 -4.965400 11.033500
     CHANNELS 3 Yrotation Xrotation Zrotation
     End Site
     {
      OFFSET 0.000000 -1.423100 5.872300
     }
    }
   }
  }
 }
}
MOTION
Frames: 16
Frame Time: 0.008333
0.000000 85.388000 0.000000 0.000000 -5.767877 0.000000 0.000000 11.653817 0.000000 0.000000 -5.885947 0.000000 0.000000 -0.000000 0.000000 0.000000 -0.000000 0.000000 0.000000 12.528835 0.000000 0.000000 0.711642 0.000000 0.000000 -0.000000 0.000000 0.000000 0.000000 -90.000000 0.000000 -2.309062 0.000000 0.000000 2.309062 0.000000 0.000000 -0.000000 0.000000 0.000000 -0.000000 90.000000 0.000000 -2.309062 0.000000 0.000000 2.309062 0.000000 0.000000 8.520406 0.000000 0.000000 1.905762 0.000000 -0.000000 -4.658285 0.000000 0.000000 -0.000000 0.000000 0.000000 8.520406 0.000000 0.000000 1.905762 0.000000 -0.000000 -4.658285 0.000000 0.000000 -0.000000 0.000000
-51.853630 50.341770 36.630953 174.398073 -33.848809 -6.518327 6.393265 24.911921 7.297711 0.810654 4.208866 0.819536 1.330923 6.680716 1.321679 4.811304 20.647031 4.785056 -4.473908 13.791422 4.440475 -10.143654 -9.606640 10.093643 2.070830 -1.509332 -6.553414 14.604310 -22.623844 -6.868412 125.112172 -61.206310 -143.553296 -1.148978 -7.681626 -29.712560 -14.420884 0.418889 -0.564804 -1.424046 -9.639072 5.424495 -139.619827 -56.524962 144.371331 14.571710 -15.979118 -8.864095 3.493159 -47.828255 8.662156 -59.669364 85.567461 -49.073363 -3.853716 -7.042390 -1.968023 -0.267833 0.821247 -0.149164 -11.279032 -51.278229 17.721712 -121.155658 86.509382 -128.456596 0.159240 -7.689181 5.105583 -0.383147 -0.813297 -0.251121
-51.851952 50.338078 36.626941 174.426875 -33.823207 -6.503313 6.344135 24.901114 7.265921 0.784853 4.223774 0.846708 1.319746 6.676908 1.324866 4.778730 20.644976 4.792938 -4.426134 13.660698 4.383137 -10.048664 -9.861570 9.984325 2.013723 -1.486068 -6.552192 14.625575 -22.053889 -6.886846 124.907950 -61.326447 -143.038879 -1.003659 -7.641446 -29.289656 -14.336307 0.235649 -0.655192 -1.400613 -9.543597 5.375385 -139.529452 -56.544918 144.243301 14.647019 -15.997792 -8.840309 3.478569 -47.849183 8.619223 -59.826648 85.569674 -49.218917 -3.881752 -7.031444 -1.991617 -0.225270 0.804956 -0.144010 -11.322193 -51.301396 17.697209 -121.358915 86.516799 -128.669985 0.148183 -7.710222 5.093158 -0.360457 -0.787433 -0.225636
-51.846242 50.334756 36.622727 174.438174 -33.799035 -6.498243 6.298003 24.909869 7.271960 0.795368 4.206582 0.830927 1.297075 6.671567 1.344414 4.746648 20.639120 4.799126 -4.378320 13.548238 4.327956 -9.951820 -10.082359 9.876513 1.970173 -1.483281 -6.556797 14.585967 -21.469751 -6.878078 124.812393 -61.482133 -142.577112 -0.860932 -7.589919 -28.811154 -14.252862 0.065428 -0.742335 -1.405894 -9.414888 5.358311 -139.692099 -56.606998 144.421592 14.676515 -16.000708 -8.877479 3.422391 -47.865674 8.613295 -59.970488 85.576493 -49.346202 -3.890789 -7.036880 -2.040672 -0.171043 0.812884 -0.135096 -11.377291 -51.319300 17.706821 -121.557855 86.524401 -128.881914 0.164430 -7.724728 5.090734 -0.368202 -0.777838 -0.236670
-51.841031 50.332225 36.616927 174.437005 -33.784409 -6.480581 6.264116 24.917817 7.274264 0.803128 4.195981 0.814861 1.278050 6.648298 1.358562 4.716378 20.627085 4.805693 -4.331954 13.458341 4.276411 -9.855923 -10.260713 9.772939 1.916119 -1.473389 -6.557733 14.480337 -20.881384 -6.846912 124.818069 -61.658902 -142.158313 -0.744066 -7.545938 -28.293045 -14.168360 -0.083388 -0.824902 -1.368072 -9.355582 5.299820 -139.772462 -56.674762 144.406759 14.756630 -16.027942 -8.887581 3.387254 -47.876494 8.605209 -60.075016 85.588804 -49.455324 -3.873535 -7.037785 -2.060627 -0.219784 0.817858 -0.136528 -11.462615 -51.317732 17.721910 -121.920398 86.545829 -129.270161 0.187471 -7.746617 5.066969 -0.377553 -0.765421 -0.248055
-51.833061 50.330753 36.610689 174.439629 -33.777453 -6.482016 6.225498 24.902141 7.307759 0.805566 4.204595 0.795609 1.273502 6.614568 1.353096 4.707987 20.645872 4.797829 -4.296042 13.355481 4.255355 -9.763456 -10.393101 9.676357 1.836760 -1.489189 -6.534278 14.299755 -20.282068 -6.787503 124.889046 -61.827752 -141.759422 -0.663155 -7.522886 -27.777258 -14.097937 -0.240235 -0.869154 -1.341977 -9.302380 5.236586 -139.829419 -56.731578 144.375693 14.838552 -16.059699 -8.904768 3.366145 -47.881563 8.606122 -60.215023 85.592050 -49.579926 -3.863357 -7.038633 -2.077419 -0.190673 0.837818 -0.125453 -11.505020 -51.321045 17.734195 -122.100601 86.538662 -129.449015 0.207444 -7.760412 5.055108 -0.378585 -0.758731 -0.234701
-51.824154 50.328720 36.606373 174.447129 -33.762689 -6.495549 6.207688 24.864304 7.331253 0.795436 4.205588 0.797281 1.268434 6.580264 1.352924 4.676100 20.605014 4.814859 -4.249034 13.324423 4.197169 -9.673008 -10.489749 9.582084 1.774201 -1.438413 -6.544654 14.055270 -19.666196 -6.692916 124.964347 -61.958010 -141.337236 -0.604067 -7.525028 -27.318139 -14.008322 -0.330330 -0.952817 -1.346269 -9.230407 5.184593 -139.802966 -56.777192 144.278625 14.908789 -16.131966 -8.891055 3.332580 -47.896452 8.626445 -60.313507 85.594626 -49.670882 -3.860467 -7.032262 -2.077139 -0.201189 0.837749 -0.132192 -11.544809 -51.340471 17.744048 -122.151708 86.512598 -129.471894 0.234268 -7.765350 5.024473 -0.361125 -0.760563 -0.224460
-51.821147 50.324611 36.604456 174.460342 -33.731494 -6.482255 6.171913 24.815491 7.316205 0.777470 4.137972 0.823932 1.272231 6.620497 1.327711 4.651752 20.531966 4.837467 -4.204931 13.308809 4.137915 -9.581628 -10.569968 9.481418 1.703982 -1.378152 -6.563411 13.783402 -19.036036 -6.561457 124.955024 -62.029981 -140.838083 -0.546522 -7.546470 -26.945808 -13.924533 -0.401378 -1.031909 -1.362142 -9.157651 5.131361 -139.760349 -56.763145 144.238124 14.968165 -16.157253 -8.912669 3.317498 -47.928972 8.598237 -60.395534 85.610047 -49.752357 -3.844097 -7.028736 -2.079494 -0.206329 0.839187 -0.136085 -11.590763 -51.367625 17.739067 -122.285499 86.520942 -129.618795 0.247911 -7.774648 5.012692 -0.366339 -0.749995 -0.214588
-51.817762 50.322181 36.601328 174.468525 -33.719786 -6.472342 6.152955 24.798690 7.302702 0.772182 4.090523 0.840164 1.266115 6.595966 1.330081 4.644337 20.558960 4.834544 -4.156635 13.212602 4.108854 -9.490064 -10.649914 9.371950 1.621432 -1.395052 -6.571545 13.520992 -18.404428 -6.400571 124.776924 -62.031615 -140.217903 -0.477254 -7.578270 -26.649473 -13.851301 -0.543273 -1.062603 -1.387047 -9.079219 5.081848 -139.626506 -56.712688 144.138981 15.022612 -16.194087 -8.929894 3.296505 -47.940229 8.563947 -60.308707 85.645060 -49.638598 -3.844857 -7.021455 -2.122970 -0.184926 0.830909 -0.125326 -11.630451 -51.375378 17.737104 -122.447957 86.526966 -129.792147 0.259307 -7.780279 4.999516 -0.367825 -0.747927 -0.214126
-51.811933 50.320462 36.599329 174.470628 -33.714243 -6.479230 6.142611 24.753911 7.323846 0.772955 4.070697 0.843460 1.258468 6.550852 1.338642 4.635191 20.516018 4.854514 -4.119348 13.200063 4.040010 -9.397532 -10.737268 9.254066 1.530942 -1.311542 -6.621712 13.283149 -17.783738 -6.212842 124.350752 -61.947356 -139.435726 -0.383077 -7.622301 -26.374261 -13.790107 -0.609760 -1.143033 -1.432117 -8.934225 5.056890 -139.468454 -56.621753 144.050428 15.046001 -16.267313 -8.924594 3.284428 -47.946270 8.568285 -60.265736 85.654405 -49.578874 -3.848695 -7.020430 -2.140946 -0.177417 0.832008 -0.120227 -11.684790 -51.378077 17.753426 -122.596333 86.521437 -129.932588 0.281454 -7.785642 4.971664 -0.360157 -0.747908 -0.214140
-51.810011 50.318136 36.598778 174.477272 -33.704562 -6.470993 6.122539 24.680383 7.339786 0.769168 4.106833 0.822891 1.256020 6.497033 1.352445 4.628260 20.450644 4.879526 -4.084160 13.186110 3.967831 -9.302343 -10.831643 9.128409 1.437138 -1.229952 -6.685451 13.078379 -17.169827 -5.992559 123.594286 -61.753278 -138.443396 -0.253068 -7.682220 -26.056030 -13.738654 -0.685573 -1.225461 -1.438748 -8.869316 5.018942 -139.189747 -56.565315 143.791842 15.058773 -16.357656 -8.919187 3.275589 -47.954692 8.551780 -60.212391 85.667107 -49.523971 -3.840227 -7.022774 -2.139176 -0.183274 0.836862 -0.129239 -11.706905 -51.384810 17.737515 -122.763055 86.534549 -130.099464 0.291121 -7.793661 4.963432 -0.367120 -0.737029 -0.201516
-51.809351 50.316424 36.598878 174.480277 -33.700087 -6.458385 6.112060 24.655355 7.335322 0.767372 4.099006 0.823753 1.253358 6.444285 1.363645 4.620398 20.416220 4.894941 -4.042883 13.142763 3.905958 -9.205372 -10.923834 9.000569 1.350059 -1.199608 -6.744163 12.915154 -16.544786 -5.735571 122.462014 -61.425965 -137.216160 -0.080816 -7.755997 -25.647508 -13.688654 -0.797352 -1.293604 -1.431923 -8.796473 4.995661 -138.877007 -56.500908 143.503761 15.071820 -16.467005 -8.922105 3.271525 -47.960509 8.535650 -60.185509 85.676573 -49.492003 -3.866272 -7.018532 -2.132994 -0.213703 0.844494 -0.129148 -11.709807 -51.388054 17.710715 -122.891840 86.548366 -130.226025 0.295812 -7.799112 4.965506 -0.367202 -0.731275 -0.211644
-51.807585 50.314754 36.601480 174.470485 -33.690637 -6.451548 6.117219 24.605210 7.352534 0.763811 4.082624 0.825562 1.248453 6.437984 1.358838 4.615248 20.360004 4.910972 -4.000654 13.106297 3.846804 -9.106770 -11.002993 8.876706 1.267848 -1.192888 -6.795314 12.789197 -15.896433 -5.443336 121.013741 -60.968936 -135.809094 0.140704 -7.836762 -25.114520 -13.641519 -0.906615 -1.359201 -1.424801 -8.692147 4.989136 -138.557269 -56.416189 143.235337 15.091061 -16.589803 -8.937587 3.250517 -47.970104 8.530896 -60.005275 85.691082 -49.300223 -3.865486 -7.003688 -2.155127 -0.227039 0.834919 -0.135405 -11.709986 -51.395156 17.695560 -123.020233 86.563282 -130.338344 0.299533 -7.814276 4.945338 -0.364127 -0.715820 -0.207045
-51.808678 50.313876 36.604385 174.472984 -33.684255 -6.439438 6.108685 24.558687 7.356841 0.760185 4.065176 0.826182 1.242106 6.476118 1.345511 4.615627 20.260290 4.930437 -3.956080 13.079867 3.791053 -9.003723 -11.063369 8.757062 1.186576 -1.199371 -6.839860 12.682560 -15.233379 -5.116793 119.404681 -60.424567 -134.337645 0.407865 -7.913940 -24.430088 -13.597370 -1.007255 -1.418871 -1.405594 -8.590472 4.984866 -138.220635 -56.332785 142.957733 15.115545 -16.719488 -8.971380 3.242594 -47.975879 8.510178 -59.922615 85.700838 -49.223090 -3.829793 -6.996038 -2.155527 -0.175939 0.838638 -0.135843 -11.687370 -51.400002 17.650247 -123.163115 86.588979 -130.463796 0.290872 -7.829257 4.939162 -0.357235 -0.694142 -0.193311
-51.810466 50.313748 36.608413 174.474366 -33.677780 -6.428169 6.094882 24.468734 7.376924 0.754890 4.030372 0.826425 1.234214 6.446030 1.341881 4.607013 20.285320 4.929758 -3.907315 13.064025 3.738627 -8.892743 -11.104062 8.640671 1.105233 -1.198175 -6.878136 12.570130 -14.575567 -4.762625 117.814253 -59.858544 -132.917155 0.700843 -7.977266 -23.576138 -13.557032 -1.092322 -1.472943 -1.368058 -8.491624 4.980585 -137.876654 -56.259678 142.673037 15.141472 -16.856377 -9.032155 3.249512 -47.982443 8.491815 -59.899540 85.696522 -49.197016 -3.831871 -6.993302 -2.153572 -0.181957 0.846214 -0.133089 -11.658279 -51.406769 17.603346 -123.259348 86.612375 -130.538925 0.280873 -7.837353 4.932847 -0.351635 -0.680029 -0.188206
-51.812869 50.314218 36.613736 174.465888 -33.669555 -6.413489 6.089378 24.411942 7.375015 0.752235 4.010752 0.825814 1.232484 6.446429 1.341909 4.601836 20.214448 4.934296 -3.853924 13.055139 3.690424 -8.773858 -11.131846 8.529644 1.025451 -1.176115 -6.904748 12.423143 -13.938226 -4.400061 116.395904 -59.350361 -131.634010 0.997264 -8.019557 -22.559203 -13.520308 -1.160534 -1.524669 -1.305857 -8.385067 4.979807 -137.531606 -56.203164 142.380068 15.165792 -17.000904 -9.119888 3.247377 -47.990406 8.476535 -59.818235 85.696766 -49.115388 -3.817880 -6.982618 -2.160109 -0.197082 0.848078 -0.131480 -11.622291 -51.414830 17.557183 -123.285192 86.634699 -130.541438 0.275145 -7.846896 4.925190 -0.345900 -0.665112 -0.183647
